<svg width="170" height="49" viewBox="0 0 170 49" fill="none" xmlns="http://www.w3.org/2000/svg">
<g clip-path="url(#clip0_317_3)">
<path fill-rule="evenodd" clip-rule="evenodd" d="M169.712 33.2878H164.401L150.333 17.7029V33.2878H146.001V0.819142H150.333V15.4766L163.935 0.819142H169.246L154.851 16.5897L169.712 33.2878ZM146.714 45.1914C146.714 45.7749 146.525 46.2674 146.148 46.6698C145.77 47.0717 145.316 47.2726 144.782 47.2726C144.228 47.2726 143.8 47.0811 143.5 46.697V48.7387H142.478V43.221H143.5V43.6857C143.8 43.3021 144.228 43.1106 144.782 43.1106C145.316 43.1106 145.77 43.3116 146.148 43.7134C146.525 44.1153 146.714 44.6083 146.714 45.1914ZM145.38 44.3915C145.171 44.1837 144.909 44.0802 144.592 44.0802C144.276 44.0802 144.014 44.1837 143.808 44.3915C143.603 44.5989 143.5 44.8657 143.5 45.1914C143.5 45.5175 143.603 45.7843 143.808 45.9917C144.014 46.1991 144.276 46.303 144.592 46.303C144.909 46.303 145.171 46.1991 145.38 45.9917C145.588 45.7843 145.693 45.5175 145.693 45.1914C145.693 44.8657 145.588 44.5989 145.38 44.3915ZM123.874 33.8912C119.153 33.8912 115.163 32.2524 111.902 28.9743C108.641 25.6968 107.011 21.7233 107.011 17.0535C107.011 12.3534 108.641 8.37257 111.902 5.10986C115.163 1.84765 119.153 0.216293 123.874 0.216293C128.594 0.216293 132.592 1.84765 135.869 5.10986C139.145 8.37257 140.784 12.3534 140.784 17.0535C140.784 21.7233 139.145 25.6968 135.869 28.9743C132.592 32.2524 128.594 33.8912 123.874 33.8912ZM132.841 8.03204C130.434 5.60481 127.445 4.3907 123.874 4.3907C120.302 4.3907 117.313 5.60481 114.906 8.03204C112.5 10.4598 111.296 13.4666 111.296 17.0535C111.296 20.6102 112.5 23.6017 114.906 26.0289C117.313 28.4566 120.302 29.6702 123.874 29.6702C127.445 29.6702 130.434 28.4566 132.841 26.0289C135.248 23.6017 136.452 20.6102 136.452 17.0535C136.452 13.4666 135.248 10.4598 132.841 8.03204ZM107.62 41.8331H109.916V42.7161H107.62V41.8331ZM107.953 45.4596L109.813 43.221H110.573V47.1623H109.576V44.9236L107.715 47.1623H106.955V43.221H107.953V45.4596ZM89.8677 29.6702C92.1036 29.6702 94.1451 29.1367 95.9932 28.0701C97.8408 27.003 99.2307 25.5884 100.163 23.8259L103.936 25.9591C102.569 28.3715 100.628 30.2964 98.1127 31.7342C95.5975 33.172 92.8492 33.8912 89.8677 33.8912C84.9298 33.8912 80.8537 32.2677 77.6397 29.0209C74.4251 25.774 72.818 21.7847 72.818 17.0535C72.818 12.3223 74.4251 8.33347 77.6397 5.0866C80.8537 1.83973 84.9298 0.216293 89.8677 0.216293C92.8492 0.216293 95.5896 0.928031 98.0894 2.35002C100.589 3.77251 102.538 5.68945 103.936 8.10133L100.163 10.2816C99.2307 8.48839 97.8408 7.05798 95.9932 5.99087C94.1451 4.92425 92.1036 4.3907 89.8677 4.3907C86.1098 4.3907 83.0434 5.59689 80.6673 8.00878C78.2918 10.4207 77.1038 13.4354 77.1038 17.0535C77.1038 20.6409 78.2918 23.6403 80.6673 26.0522C83.0434 28.4641 86.1098 29.6702 89.8677 29.6702ZM45.0847 19.8925C34.9582 11.8446 24.7199 12.7385 14.6054 20.1504C19.0801 13.3701 25.4024 9.75348 33.5629 9.69606C42.9179 9.62974 51.1142 15.1494 54.5664 23.6784C57.8779 31.8599 56.4652 39.4123 51.2156 46.3644C55.6351 35.2934 51.6659 25.1226 45.0847 19.8925ZM16.0216 11.9421C6.67261 18.9739 0.574482 33.4873 7.48334 48.1898C0.313517 39.7628 -1.77718 30.2266 1.69539 19.7049C5.33249 8.68587 15.7244 1.04533 27.344 0.331122C38.7116 -0.367747 49.0578 6.04779 53.184 13.4324C39.8335 2.40644 24.799 5.34051 16.0216 11.9421ZM74.52 43.221H75.6603L76.7921 44.9315V43.221H77.7898V44.9315L78.9216 43.221H80.0699L78.7158 45.1676L80.1489 47.1623H79.0011L77.7898 45.3963V47.1623H76.7921V45.3963L75.5808 47.1623H74.441L75.8661 45.1676L74.52 43.221ZM84.8751 45.4596L86.7356 43.221H87.4957V47.1623H86.498V44.9236L84.638 47.1623H83.878V43.221H84.8751V45.4596ZM91.6915 46.1021C91.8023 45.9783 91.858 45.7645 91.858 45.4596V43.221H94.9931V47.1623H93.9716V44.198H92.8795V45.5146C92.8795 46.7341 92.3223 47.283 91.2088 47.1623V46.2085C91.4196 46.261 91.5806 46.2253 91.6915 46.1021ZM100.97 43.1106C101.556 43.1106 102.052 43.3116 102.459 43.7134C102.865 44.1153 103.068 44.6083 103.068 45.1914C103.068 45.7749 102.865 46.2674 102.459 46.6698C102.052 47.0717 101.556 47.2726 100.97 47.2726C100.384 47.2726 99.8898 47.0717 99.4856 46.6698C99.082 46.2674 98.8802 45.7749 98.8802 45.1914C98.8802 44.6083 99.082 44.1153 99.4856 43.7134C99.8898 43.3116 100.384 43.1106 100.97 43.1106ZM100.206 45.9719C100.409 46.1768 100.664 46.2793 100.97 46.2793C101.276 46.2793 101.533 46.1768 101.738 45.9719C101.944 45.767 102.047 45.5067 102.047 45.1914C102.047 44.8761 101.944 44.6162 101.738 44.4108C101.533 44.2059 101.276 44.1035 100.97 44.1035C100.664 44.1035 100.409 44.2059 100.206 44.4108C100.003 44.6162 99.9017 44.8761 99.9017 45.1914C99.9017 45.5067 100.003 45.767 100.206 45.9719ZM120.842 44.9548L122.204 43.221H123.423L121.831 45.1676L123.47 47.1623H122.283L120.842 45.373V47.1623H119.821V43.221H120.842V44.9548ZM130.037 43.5283C130.267 43.7332 130.381 44.001 130.381 44.3321C130.381 44.6791 130.252 44.9498 129.994 45.1443C130.363 45.323 130.548 45.6225 130.548 46.0427C130.548 46.3738 130.433 46.6435 130.203 46.8509C129.974 47.0583 129.648 47.1623 129.226 47.1623H127.143V43.221H129.067C129.484 43.221 129.808 43.3234 130.037 43.5283ZM128.101 46.303H129.107C129.403 46.303 129.55 46.1768 129.55 45.9244C129.55 45.8145 129.511 45.7274 129.432 45.6645C129.352 45.6012 129.244 45.57 129.107 45.57H128.101V46.303ZM128.101 44.0564V44.7657H128.972C129.262 44.7657 129.408 44.6474 129.408 44.4108C129.408 44.1747 129.262 44.0564 128.972 44.0564H128.101ZM136.074 43.1106C136.628 43.1106 137.058 43.3021 137.364 43.6857V43.221H138.385V47.1623H137.364V46.697C137.058 47.0811 136.628 47.2726 136.074 47.2726C135.546 47.2726 135.093 47.0717 134.716 46.6698C134.339 46.2674 134.15 45.7749 134.15 45.1914C134.15 44.6083 134.339 44.1153 134.716 43.7134C135.093 43.3116 135.546 43.1106 136.074 43.1106ZM135.48 45.9917C135.686 46.1991 135.947 46.303 136.264 46.303C136.58 46.303 136.843 46.1991 137.052 45.9917C137.26 45.7843 137.364 45.5175 137.364 45.1914C137.364 44.8657 137.26 44.5989 137.052 44.3915C136.843 44.1837 136.58 44.0802 136.264 44.0802C135.947 44.0802 135.686 44.1837 135.48 44.3915C135.274 44.5989 135.171 44.8657 135.171 45.1914C135.171 45.5175 135.274 45.7843 135.48 45.9917ZM153.562 44.198H152.327V47.1623H151.306V44.198H150.055V43.221H153.562V44.198ZM158.835 43.1106C159.389 43.1106 159.819 43.3021 160.125 43.6857V43.221H161.147V47.1623H160.125V46.697C159.819 47.0811 159.389 47.2726 158.835 47.2726C158.307 47.2726 157.855 47.0717 157.477 46.6698C157.1 46.2674 156.911 45.7749 156.911 45.1914C156.911 44.6083 157.1 44.1153 157.477 43.7134C157.855 43.3116 158.307 43.1106 158.835 43.1106ZM158.241 45.9917C158.447 46.1991 158.708 46.303 159.025 46.303C159.342 46.303 159.604 46.1991 159.813 45.9917C160.021 45.7843 160.125 45.5175 160.125 45.1914C160.125 44.8657 160.021 44.5989 159.813 44.3915C159.604 44.1837 159.342 44.0802 159.025 44.0802C158.708 44.0802 158.447 44.1837 158.241 44.3915C158.035 44.5989 157.932 44.8657 157.932 45.1914C157.932 45.5175 158.035 45.7843 158.241 45.9917ZM165.335 46.1021C165.446 45.9783 165.501 45.7645 165.501 45.4596V43.221H168.636V47.1623H167.615V44.198H166.522V45.5146C166.522 46.7341 165.966 47.283 164.852 47.1623V46.2085C165.063 46.261 165.224 46.2253 165.335 46.1021Z" fill="white"/>
</g>
<defs>
<clipPath id="clip0_317_3">
<rect width="170" height="49" fill="white"/>
</clipPath>
</defs>
</svg>
