<svg width="101" height="111" viewBox="0 0 101 111" fill="none" xmlns="http://www.w3.org/2000/svg">
<path fill-rule="evenodd" clip-rule="evenodd" d="M47.5374 47.8237C47.0318 47.537 42.5748 41.8915 42.0519 41.28C41.1181 40.1868 40.2162 39.0224 39.3658 38.0031C38.382 36.8239 37.5858 35.7315 36.6156 34.7123C36.8028 35.4622 41.8808 46.5061 42.6255 48.2677C42.9071 48.9339 43.3229 49.689 43.4902 50.2896C42.9845 50.5167 36.2156 49.6781 35.6713 49.6385C32.0019 49.3733 27.6043 48.8116 23.839 48.5046C22.0041 48.3552 12.2401 47.3492 11.9604 47.4299C12.3815 47.8369 24.8585 52.3647 26.6847 53.1063L41.4917 58.7858C41.3331 59.2214 37.19 62.4923 36.6629 62.9224L31.7233 67.0213C31.1681 67.4792 28.7602 69.4027 28.4508 69.7912C29.9365 69.2631 34.3728 67.1548 36.2212 66.323C37.5276 65.7357 39.0072 65.0722 40.1395 64.5561C40.6372 64.3291 43.6593 62.8586 44.0555 62.8782L41.2188 94.2012C41.4718 93.9141 49.1257 73.4868 49.6001 72.2789C50.1241 70.9455 52.0319 65.5531 52.4297 64.8533C52.8875 65.1295 59.5915 73.437 60.558 74.6196C61.1282 75.3179 62.8759 77.5846 63.2676 77.8536C63.2714 77.4469 58.0265 65.9896 57.3085 64.346C57.0927 63.8519 56.4908 62.8085 56.5607 62.303L72.235 63.813C74.7221 64.074 77.5352 64.3702 80.0715 64.5505L85.9127 65.1129C86.292 65.1506 86.6277 65.1932 86.9585 65.2185C87.1367 65.2321 87.3097 65.263 87.4758 65.274L87.9194 65.2359C87.6194 64.9216 67.0044 57.1954 65.8202 56.7228C64.5759 56.2263 63.3985 55.7771 62.1583 55.327C60.9369 54.8838 59.6606 54.4311 58.4178 53.9215C58.502 53.6345 61.2072 51.5005 61.6162 51.164L68.2419 45.666C68.8017 45.1959 71.2655 43.2333 71.5061 42.8919L59.8809 48.1104C59.1997 48.4065 56.3363 49.772 55.9626 49.8301C55.7878 49.2926 58.1813 27.1199 58.5351 22.2937L58.8636 18.5781C58.814 18.3638 58.8809 18.5355 58.7674 18.3823C58.5426 18.6622 52.3786 35.183 51.7606 36.7666L48.9824 44.0843C48.687 44.9142 47.8949 47.2349 47.5374 47.8237ZM50.4159 56.4164L84.2147 64.3581C83.9771 64.1137 82.4395 63.5475 82.1358 63.4399L57.437 54.0471C54.798 53.1056 55.7469 53.0475 53.6364 54.344C53.165 54.6333 50.5775 56.2029 50.4159 56.4164ZM55.8901 50.2447C55.7668 50.7491 55.5954 52.2462 55.6916 52.6815C56.098 52.6193 58.4949 51.0539 59.0283 50.7121C60.1546 49.9901 61.2309 49.367 62.3557 48.6306C63.0669 48.1651 68.584 44.8901 68.9227 44.428C68.5167 44.4921 63.2361 46.9259 62.4154 47.305C60.1557 48.3499 57.9956 49.345 55.8901 50.2447ZM50.0598 55.9C50.4486 54.8687 50.797 52.8385 51.0688 51.6717L56.0931 30.0924C56.7453 27.2987 57.5825 24.3462 57.9761 21.6038C57.5107 23.0572 56.8923 24.6906 56.2949 26.1365L54.5732 30.7209C53.9131 32.6903 51.9883 37.6093 51.1361 39.7323C49.9185 42.7667 48.8501 45.7894 47.716 48.8102C47.5148 49.3458 46.8821 50.5944 47.0002 51.044C47.0197 51.1206 49.8948 55.8295 50.0598 55.9ZM46.4178 50.6513C46.4088 50.6121 38.6343 37.8568 38.0291 37.0948C38.0802 37.5418 39.3975 40.2767 39.6587 40.8576L43.8759 50.2888C44.1732 50.6163 45.9055 50.6611 46.4178 50.6513ZM49.5527 56.2576L15.8318 48.3394C15.9596 48.6189 19.935 50.0418 20.1572 50.1153C21.6549 50.6106 23.2082 51.2821 24.654 51.8192C30.6248 54.0362 36.5103 56.4417 42.5229 58.6311C45.1735 59.5964 44.1728 59.667 46.3265 58.3448C46.7648 58.0758 49.3576 56.5387 49.5527 56.2576ZM41.9346 91.2313C43.7702 86.2112 45.5807 81.4183 47.466 76.5363C48.3877 74.1519 49.3535 71.5687 50.2501 69.1435C50.676 67.9922 51.1914 66.678 51.6418 65.5041C52.0199 64.5176 52.806 62.7522 53.015 61.7824C52.8639 61.3444 50.1076 56.9061 49.9012 56.7759C49.4971 58.0404 49.202 59.6873 48.8934 61.0136L41.9346 91.2313ZM30.6647 68.4241C31.3034 68.331 42.3225 63.1264 44.074 62.4455L44.2958 60.3346C44.2961 60.3018 44.2965 60.2773 44.2961 60.246C44.2958 60.2158 44.2928 60.1875 44.2913 60.1603L44.269 59.9959C43.7499 60.086 34.9082 65.7492 34.0541 66.2872C33.4458 66.67 32.9281 66.9904 32.3315 67.3661C31.8477 67.6716 31.0527 68.0963 30.6647 68.4241ZM53.6237 62.0235C53.6244 62.4795 55.2453 64.8432 55.5589 65.3641C56.2314 66.4826 57.0243 67.7549 57.628 68.704C58.1054 69.4543 61.5049 75.1055 61.8079 75.371C61.7959 74.8897 59.0302 68.9621 58.5787 67.9508L56.0919 62.3871C55.8683 62.1483 54.05 62.005 53.6237 62.0235Z" fill="#6A2F85"/>
<path fill-rule="evenodd" clip-rule="evenodd" d="M59.4565 31.3064C63.0083 32.8904 64.3839 33.5558 67.3736 36.0357C69.4773 37.7803 71.3452 40.1003 72.761 42.4164C75.3485 46.65 77.1766 53.0389 76.5744 58.2525C76.5041 58.8606 76.4173 59.0567 77.1954 58.9786C77.8296 57.0967 77.109 51.7213 76.5691 49.6308C75.456 45.3206 73.6252 41.7762 70.8588 38.4955C68.3788 35.5543 63.5233 31.6501 59.7411 30.6482C59.5772 30.8368 59.4998 31.0258 59.4565 31.3064Z" fill="#6A2F85"/>
<path fill-rule="evenodd" clip-rule="evenodd" d="M24.3809 46.6118L25.0556 46.7944C25.2815 46.4481 25.7989 45.0483 26.0282 44.5586C26.9075 42.682 28.4679 40.4805 29.7107 38.9554C34.0106 33.6796 40.8584 30.2669 47.7484 29.6596C48.5755 29.5868 49.2194 29.5626 50.0863 29.5656C50.5848 29.5675 52.1893 29.7124 52.4991 29.6437L52.6535 29.0047C51.6303 28.6893 48.7371 28.8203 47.7447 28.9017C40.4246 29.5023 34.0045 32.9161 29.1566 38.4556C27.4833 40.3677 25.2259 43.8136 24.3809 46.6118Z" fill="#6A2F85"/>
<path fill-rule="evenodd" clip-rule="evenodd" d="M40.2885 82.0406L40.4836 81.4065C39.8442 80.9455 36.2492 79.9153 32.6948 76.7418C30.4359 74.7248 28.7934 72.8123 27.342 70.4931C24.6466 66.1852 22.7534 60.0037 23.4414 53.8437L22.6963 53.6853C22.7196 54.359 22.5651 55.3934 22.5654 56.1501C22.5658 56.9679 22.6034 57.8313 22.6613 58.5462C22.7918 60.1558 23.0207 61.6065 23.3917 63.0604C25.2308 70.2668 29.5212 75.9805 35.8003 79.9169C36.6586 80.4548 39.1495 81.8222 40.2885 82.0406Z" fill="#572969"/>
<path fill-rule="evenodd" clip-rule="evenodd" d="M47.4576 83.0399L47.314 83.6834C48.3711 84.0199 51.2075 83.8664 52.1841 83.7766C57.0061 83.3345 60.327 82.1319 64.425 79.7392C67.9181 77.6992 71.1004 74.3216 73.4209 70.6229C73.9303 69.8104 75.4103 67.0687 75.5453 66.0785C74.7085 65.5613 74.9559 65.9442 74.2104 67.5169C71.8823 72.4291 68.7576 76.0379 64.3141 78.9165C55.931 84.3473 48.2628 82.8528 47.4576 83.0399Z" fill="#6A2F85"/>
<path d="M60.2958 14.1072C58.869 13.7727 57.7987 13.0248 57.0849 11.8635C56.3711 10.7022 56.173 9.43931 56.4906 8.07485C56.8083 6.71039 57.5435 5.66627 58.6961 4.94248C59.8488 4.2187 61.1386 4.02403 62.5653 4.35849C63.4358 4.56253 64.1853 4.9607 64.8139 5.55299C65.4447 6.1363 65.8749 6.82882 66.1046 7.63053L65.1572 7.91965C64.9949 7.27572 64.6617 6.71484 64.1579 6.23699C63.654 5.75915 63.0521 5.43819 62.3522 5.27412C61.1766 4.99855 60.1277 5.15499 59.2052 5.74342C58.2828 6.33184 57.692 7.18261 57.4329 8.29572C57.1737 9.40883 57.3277 10.4342 57.8949 11.3718C58.4621 12.3094 59.3334 12.916 60.5089 13.1916C61.2089 13.3556 61.8902 13.3355 62.5529 13.1311C63.2156 12.9267 63.7618 12.572 64.1917 12.0669L64.9165 12.7338C64.3656 13.3525 63.6731 13.7866 62.839 14.036C62.014 14.2875 61.1662 14.3112 60.2958 14.1072Z" fill="#6A2F85"/>
<path d="M41.8524 97.1313C43.2164 97.451 44.2587 98.1971 44.9794 99.3695C45.7022 100.533 45.9058 101.792 45.5902 103.148C45.2747 104.503 44.535 105.546 43.3713 106.277C42.2096 106.999 40.9468 107.2 39.5828 106.88C38.2727 106.573 37.2624 105.872 36.5519 104.778C35.8504 103.686 35.6131 102.489 35.8402 101.189L34.0769 100.776L33.0518 105.179L32.1096 104.958L34.304 95.5322L35.2462 95.7531L34.2838 99.8869L36.0606 100.303C36.4904 99.1072 37.2491 98.2059 38.3367 97.5994C39.4242 96.9928 40.5961 96.8368 41.8524 97.1313ZM37.2627 104.164C37.8388 105.103 38.6833 105.704 39.796 105.964C40.9087 106.225 41.9308 106.062 42.8622 105.476C43.7957 104.881 44.391 104.031 44.648 102.927C44.9051 101.823 44.7455 100.801 44.1694 99.8612C43.5953 98.9125 42.7519 98.3078 41.6392 98.0469C40.5265 97.7861 39.5034 97.9533 38.5699 98.5486C37.6385 99.135 37.0443 99.9802 36.7872 101.084C36.5302 102.188 36.6887 103.215 37.2627 104.164Z" fill="#6A2F85"/>
<path d="M7.23172 45.2691C7.7062 45.5886 8.04 45.984 8.23311 46.4552C8.42622 46.9265 8.45903 47.4359 8.33155 47.9835C8.14765 48.7734 7.70001 49.3548 6.98863 49.7277C6.28832 50.0936 5.44014 50.1599 4.44408 49.9264C3.54673 49.716 2.87587 49.3458 2.4315 48.8156C1.98713 48.2855 1.73281 47.691 1.66853 47.0322L2.58273 46.7637C2.58862 47.2668 2.74584 47.7296 3.05437 48.1522C3.37397 48.5679 3.90617 48.8631 4.65097 49.0377C5.3868 49.2102 5.99528 49.1777 6.47641 48.9402C6.95964 48.6938 7.26394 48.3012 7.38933 47.7626C7.51472 47.224 7.42764 46.7445 7.12808 46.324C6.83958 45.8966 6.36779 45.6062 5.71273 45.4526L4.63591 45.2002L4.8428 44.3115L5.58311 44.485C6.22023 44.6344 6.76485 44.5917 7.21698 44.3568C7.6691 44.122 7.95472 43.7488 8.07384 43.2371C8.19087 42.7344 8.102 42.2829 7.80723 41.8824C7.52353 41.4751 7.0676 41.1978 6.43946 41.0506C5.28187 40.7792 4.40418 41.0942 3.80639 41.9954L3.13227 41.3545C3.49934 40.8347 3.97488 40.4587 4.5589 40.2264C5.15189 39.9962 5.84771 39.9747 6.64635 40.1619C7.53473 40.3702 8.19409 40.7898 8.62445 41.4208C9.05689 42.0428 9.18638 42.7264 9.01292 43.4714C8.79349 44.414 8.19975 45.0132 7.23172 45.2691Z" fill="#6A2F85"/>
<path d="M96.7724 66.2442C97.184 66.5489 97.4775 66.9348 97.6526 67.4019C97.8388 67.8621 97.8724 68.348 97.7533 68.8597C97.584 69.5868 97.1841 70.1462 96.5534 70.538C95.9228 70.9298 95.2441 71.0405 94.5172 70.8701L90.4119 69.9077L92.6062 60.4822L96.402 61.372C97.1019 61.5361 97.6402 61.9273 98.0167 62.5457C98.3953 63.1551 98.5041 63.8054 98.3432 64.4966C98.1384 65.3763 97.6148 65.9588 96.7724 66.2442ZM96.1951 62.2607L93.3415 61.5918L92.5766 64.8772L95.4302 65.5461C95.8699 65.6492 96.2789 65.5794 96.6571 65.3368C97.0464 65.0872 97.2944 64.7335 97.401 64.2757C97.5055 63.8269 97.4383 63.4041 97.1994 63.0073C96.9696 62.6126 96.6348 62.3637 96.1951 62.2607ZM94.7241 69.9814C95.1908 70.0908 95.6243 70.0173 96.0246 69.7609C96.4361 69.4976 96.6982 69.1236 96.8111 68.6388C96.9218 68.1631 96.8509 67.7157 96.5983 67.2968C96.3547 66.8799 95.9995 66.6168 95.5329 66.5074L92.3697 65.7659L91.561 69.2399L94.7241 69.9814Z" fill="#6A2F85"/>
</svg>
